# xmcd CD database file
#
# Track frame offsets:
#	183
#	19773
#	33700
#	48995
#	63835
#	82208
#	95130
#	109883
#	127000
#	144010
#	158555
#
# Disc length: 2352 seconds
#
# Revision: 1
# Processed by: cddbd v1.4PL0 Copyright (c) Steve Scherf et al.
# Submitted via: CDex 1.50
#
DISCID=92092e0b
DTITLE=Sylkie Monoff - Harbor in the Night
DYEAR=1993
DGENRE=Country
TTITLE0=Don't
TTITLE1=Rescue me
TTITLE2=Harbour in the night
TTITLE3=New song
TTITLE4=Some Dreams
TTITLE5=Here you come again
TTITLE6=Pretenders
TTITLE7=Blue Moon
TTITLE8=When the rain comes fallin down
TTITLE9=Trifles
TTITLE10=Your Eyes
EXTD=YEAR: 1993
EXTT0=
EXTT1=
EXTT2=
EXTT3=
EXTT4=
EXTT5=
EXTT6=
EXTT7=
EXTT8=
EXTT9=
EXTT10=
PLAYORDER=
